<svg xmlns="http://www.w3.org/2000/svg" width="31.224" height="31.224" viewBox="0 0 31.224 31.224">
  <defs>
    <style>
      .cls-1 {
        fill: #fff;
      }
    </style>
  </defs>
  <path id="Facebook__x28_alt_x29_" class="cls-1" d="M31.224,5.2A5.394,5.394,0,0,0,26.02,0H5.2A5.394,5.394,0,0,0,0,5.2V26.02a5.394,5.394,0,0,0,5.2,5.2H15.612v-11.8H11.8v-5.2h3.816V12.2c0-3.5,2.626-6.646,5.855-6.646h4.207v5.2H21.467c-.46,0-1,.559-1,1.4v2.073h5.2v5.2h-5.2v11.8H26.02a5.394,5.394,0,0,0,5.2-5.2Z" transform="translate(0 0)"/>
</svg>
