<svg xmlns="http://www.w3.org/2000/svg" width="17.286" height="17.286" viewBox="0 0 17.286 17.286">
  <defs>
    <style>
      .cls-1 {
        fill: #fff;
        fill-rule: evenodd;
      }
    </style>
  </defs>
  <path id="Path_2" data-name="Path 2" class="cls-1" d="M97.555,83.438H86.607a3.173,3.173,0,0,0-3.169,3.169V97.554a3.173,3.173,0,0,0,3.169,3.169H97.555a3.173,3.173,0,0,0,3.169-3.169V86.607A3.173,3.173,0,0,0,97.555,83.438ZM92.081,97.771a5.69,5.69,0,1,1,5.691-5.691A5.7,5.7,0,0,1,92.081,97.771Zm5.874-10.2A1.346,1.346,0,1,1,99.3,86.221,1.348,1.348,0,0,1,97.954,87.567Z" transform="translate(-83.438 -83.438)"/>
</svg>
