<svg xmlns="http://www.w3.org/2000/svg" width="31.918" height="31.918" viewBox="0 0 31.918 31.918">
  <defs>
    <style>
      .cls-1 {
        fill: #fff;
      }
    </style>
  </defs>
  <path id="Path_5" data-name="Path 5" class="cls-1" d="M25.934,0H5.985A5.984,5.984,0,0,0,0,5.985V25.934a5.984,5.984,0,0,0,5.985,5.985H25.934a5.984,5.984,0,0,0,5.985-5.985V5.985A5.984,5.984,0,0,0,25.934,0ZM23.9,12.376l.012.509A11.174,11.174,0,0,1,6.709,22.3a8.08,8.08,0,0,0,.938.056,7.884,7.884,0,0,0,4.88-1.682,3.936,3.936,0,0,1-3.671-2.729,4.1,4.1,0,0,0,.74.068,3.929,3.929,0,0,0,1.035-.136,3.933,3.933,0,0,1-3.152-3.852v-.05a3.924,3.924,0,0,0,1.779.493A3.935,3.935,0,0,1,8.041,9.223a11.151,11.151,0,0,0,8.1,4.105,3.932,3.932,0,0,1,6.7-3.583,7.957,7.957,0,0,0,2.5-.954,3.94,3.94,0,0,1-1.728,2.174,7.877,7.877,0,0,0,2.256-.618A7.942,7.942,0,0,1,23.9,12.376Z"/>
</svg>
